<?xml version="1.0" standalone="no"?>
<!DOCTYPE svg PUBLIC "-//W3C//DTD SVG 20010904//EN"
 "http://www.w3.org/TR/2001/REC-SVG-20010904/DTD/svg10.dtd">
<svg version="1.0" xmlns="http://www.w3.org/2000/svg"
 width="512.000000pt" height="512.000000pt" viewBox="0 0 512.000000 512.000000"
 preserveAspectRatio="xMidYMid meet">

<g transform="translate(0.000000,512.000000) scale(0.100000,-0.100000)"
fill="#000000" stroke="none">
<path d="M1374 5110 c-187 -20 -333 -64 -519 -155 -388 -192 -684 -548 -797
-960 -50 -184 -50 -189 -55 -925 -5 -750 0 -863 43 -1041 149 -618 677 -1087
1307 -1161 l97 -12 0 -369 c0 -320 2 -374 16 -403 29 -61 93 -92 161 -79 29 5
67 36 197 163 229 222 386 337 622 455 135 67 264 116 414 156 188 50 285 62
586 71 428 14 580 46 837 177 356 182 626 496 755 878 78 230 84 325 79 1165
-5 737 -5 741 -55 925 -113 412 -409 768 -797 960 -192 94 -326 134 -527 155
-109 11 -2256 11 -2364 0z m159 -1795 c185 -48 297 -239 245 -419 -30 -103
-120 -198 -222 -232 -69 -23 -186 -16 -250 17 -148 73 -226 242 -182 394 29
96 87 169 170 212 83 42 153 51 239 28z m1169 -22 c68 -30 139 -102 171 -171
17 -36 22 -66 22 -132 0 -76 -3 -92 -33 -152 -36 -73 -87 -124 -161 -160 -66
-33 -216 -33 -282 0 -74 36 -125 87 -161 160 -30 60 -33 76 -33 152 0 101 21
154 86 225 101 110 252 140 391 78z m1108 1 c260 -118 263 -485 4 -613 -64
-33 -181 -40 -250 -17 -181 61 -279 265 -213 442 69 183 280 269 459 188z"/>
</g>
</svg>
