<?xml version="1.0" standalone="no"?>
<!DOCTYPE svg PUBLIC "-//W3C//DTD SVG 20010904//EN"
 "http://www.w3.org/TR/2001/REC-SVG-20010904/DTD/svg10.dtd">
<svg version="1.0" xmlns="http://www.w3.org/2000/svg"
 width="512.000000pt" height="512.000000pt" viewBox="0 0 512.000000 512.000000"
 preserveAspectRatio="xMidYMid meet">

<g transform="translate(0.000000,512.000000) scale(0.100000,-0.100000)"
fill="#000000" stroke="none">
<path d="M2431 5015 c-341 -74 -778 -329 -1241 -725 -547 -466 -958 -1117
-1079 -1710 -51 -248 -53 -520 -6 -750 140 -677 589 -1159 1180 -1265 118 -21
360 -22 477 -1 132 24 348 96 348 116 0 4 -20 48 -44 96 -84 172 -146 361
-187 579 -27 139 -37 477 -20 622 38 307 142 639 292 934 27 52 49 98 49 101
0 12 -147 66 -220 82 -41 8 -127 20 -190 26 -234 22 -330 75 -330 186 0 106
62 214 208 365 166 172 368 321 762 562 234 143 305 194 388 281 82 85 107
139 106 232 0 181 -126 285 -343 283 -47 0 -115 -7 -150 -14z"/>
<path d="M4629 4570 c-254 -31 -610 -201 -975 -466 -767 -558 -1263 -1248
-1419 -1975 -146 -678 98 -1393 605 -1773 254 -190 534 -275 865 -263 367 14
697 161 938 417 165 175 267 371 319 613 30 144 30 369 -1 517 -89 422 -329
764 -646 921 -120 59 -211 83 -371 99 -276 27 -359 73 -359 198 1 115 103 273
278 431 169 152 320 259 662 471 283 175 334 211 411 292 90 94 109 134 109
238 0 101 -19 146 -89 207 -72 63 -190 89 -327 73z"/>
</g>
</svg>
